<?xml version="1.0" encoding="UTF-8" standalone="no"?>
<!-- Created with Inkscape (http://www.inkscape.org/) -->

<svg
   xmlns:dc="http://purl.org/dc/elements/1.1/"
   xmlns:cc="http://creativecommons.org/ns#"
   xmlns:rdf="http://www.w3.org/1999/02/22-rdf-syntax-ns#"
   xmlns:svg="http://www.w3.org/2000/svg"
   xmlns="http://www.w3.org/2000/svg"
   xmlns:xlink="http://www.w3.org/1999/xlink"
   xmlns:sodipodi="http://sodipodi.sourceforge.net/DTD/sodipodi-0.dtd"
   xmlns:inkscape="http://www.inkscape.org/namespaces/inkscape"
   width="115.845"
   height="85"
   id="svg2"
   sodipodi:version="0.32"
   inkscape:version="0.92.3 (2405546, 2018-03-11)"
   version="1.0"
   sodipodi:docname="logo1.svg"
   inkscape:output_extension="org.inkscape.output.svg.inkscape"
   inkscape:export-filename="C:\Documents and Settings\jonsiu\Desktop\imgLogo.png"
   inkscape:export-xdpi="90"
   inkscape:export-ydpi="90">
  <defs
     id="defs4">
    <color-profile
       name="SWOP2006_Coated3v2.icc"
       xlink:href="C:\Users\wolverine\AppData\Local\color\icc\SWOP2006_Coated3v2.icc"
       id="color-profile3" />
    <inkscape:perspective
       sodipodi:type="inkscape:persp3d"
       inkscape:vp_x="0 : 526.18109 : 1"
       inkscape:vp_y="0 : 1000 : 0"
       inkscape:vp_z="744.09448 : 526.18109 : 1"
       inkscape:persp3d-origin="372.04724 : 350.78739 : 1"
       id="perspective10" />
    <inkscape:perspective
       id="perspective2450"
       inkscape:persp3d-origin="372.04724 : 350.78739 : 1"
       inkscape:vp_z="744.09448 : 526.18109 : 1"
       inkscape:vp_y="0 : 1000 : 0"
       inkscape:vp_x="0 : 526.18109 : 1"
       sodipodi:type="inkscape:persp3d" />
    <inkscape:perspective
       id="perspective2471"
       inkscape:persp3d-origin="372.04724 : 350.78739 : 1"
       inkscape:vp_z="744.09448 : 526.18109 : 1"
       inkscape:vp_y="0 : 1000 : 0"
       inkscape:vp_x="0 : 526.18109 : 1"
       sodipodi:type="inkscape:persp3d" />
    <inkscape:perspective
       id="perspective3313"
       inkscape:persp3d-origin="372.04724 : 350.78739 : 1"
       inkscape:vp_z="744.09448 : 526.18109 : 1"
       inkscape:vp_y="0 : 1000 : 0"
       inkscape:vp_x="0 : 526.18109 : 1"
       sodipodi:type="inkscape:persp3d" />
  </defs>
  <sodipodi:namedview
     id="base"
     pagecolor="#ffffff"
     bordercolor="#666666"
     borderopacity="1.0"
     gridtolerance="10000"
     guidetolerance="10"
     objecttolerance="10"
     inkscape:pageopacity="0.0"
     inkscape:pageshadow="2"
     inkscape:zoom="3.458586"
     inkscape:cx="137.99654"
     inkscape:cy="19.566667"
     inkscape:document-units="mm"
     inkscape:current-layer="g3129-1-1"
     showgrid="false"
     inkscape:window-width="1920"
     inkscape:window-height="1001"
     inkscape:window-x="-9"
     inkscape:window-y="-9"
     inkscape:window-maximized="1"
     units="mm"
     showguides="true"
     inkscape:guide-bbox="true"
     showborder="true" />
  <metadata
     id="metadata7">
    <rdf:RDF>
      <cc:Work
         rdf:about="">
        <dc:format>image/svg+xml</dc:format>
        <dc:type
           rdf:resource="http://purl.org/dc/dcmitype/StillImage" />
        <dc:title></dc:title>
      </cc:Work>
    </rdf:RDF>
  </metadata>
  <g
     inkscape:label="Layer 1"
     inkscape:groupmode="layer"
     id="layer1"
     transform="translate(0,-679.99998)">
    <g
       transform="matrix(45.902849,0,0,45.902849,-11627.027,-37750.191)"
       id="g3322"
       style="fill:#ffffff"
       inkscape:export-xdpi="90"
       inkscape:export-ydpi="90">
      <g
         id="g3324"
         style="fill:#ffffff"
         transform="matrix(0.95390234,0,0,0.90758704,35.268972,35.217345)">
        <path
           id="path3326"
           d="m 157.16412,713.6687 -0.049,0.049 c -0.0245,0.0332 -0.0487,0.0583 -0.0734,0.098 -0.0615,0.0665 -0.12844,0.1453 -0.19591,0.24489 -0.0675,0.0996 -0.13444,0.21228 -0.19591,0.31836 -0.0615,0.1061 -0.0978,0.19651 -0.14694,0.26938 l -0.0734,0.098 v 0.14693 h 5.28966 c -2e-5,-0.04 -0.0121,-0.0734 -0.0245,-0.0734 -0.0371,-0.0664 -0.10396,-0.16124 -0.17143,-0.29387 -0.0675,-0.1326 -0.12845,-0.26588 -0.19591,-0.39182 -0.0675,-0.12592 -0.13444,-0.21874 -0.19591,-0.31836 -0.0615,-0.0996 -0.0977,-0.14692 -0.12245,-0.14694 h -3.84479 z m 1.27343,0.29387 h 1.27344 v 0.61223 h -1.27344 z m 5.26517,0.22041 c -0.0368,10e-6 -0.0857,0.0137 -0.12245,0.0734 -0.0367,0.0597 -0.0487,0.14085 -0.0734,0.22041 -0.0248,0.0796 -0.0613,0.14732 -0.0734,0.2204 -0.0122,0.0731 -1e-5,0.1095 0,0.12244 h 2.0326 c -1e-5,-0.0793 -0.0182,-0.18814 -0.0734,-0.36733 -0.0553,-0.17917 -0.12245,-0.26937 -0.19591,-0.26938 h -1.49384 z m -10.45686,0.26938 c -0.0615,0 -0.10408,0.0542 -0.12245,0.14693 -0.0183,0.0927 -0.0245,0.154 -0.0245,0.2204 h 0.14694 c 0.15835,-0.14024 0.32651,-0.22039 0.53876,-0.2204 0.21258,10e-6 0.40487,0.0802 0.56325,0.2204 h 0.14693 c 0,-0.0396 -0.0123,-0.0898 -0.0245,-0.19591 -0.0121,-0.10607 -0.0242,-0.17142 -0.049,-0.17142 h -1.17548 z m -1.19997,0.63671 c -0.12296,10e-6 -0.24457,0.054 -0.36733,0.14694 -0.12278,0.0929 -0.22015,0.19224 -0.31836,0.31836 -0.0982,0.12614 -0.18342,0.27035 -0.24489,0.41631 -0.0615,0.14599 -0.098,0.26126 -0.098,0.36734 v 2.20402 h 2.20402 c 0,-0.37111 0.187,-0.56324 0.56325,-0.56325 0.37661,10e-6 0.56325,0.19214 0.56325,0.56325 h 3.1591 l 0.049,-0.0734 c 0.39286,-0.54421 0.825,-0.95051 1.29792,-1.24894 0.4729,-0.29842 1.03857,-0.46529 1.68975,-0.4653 0.58967,10e-6 1.15534,0.16688 1.68975,0.4653 0.53437,0.29843 0.95402,0.73853 1.27343,1.32241 h 3.64888 v -2.20402 c -1e-5,-0.13281 -0.0365,-0.27033 -0.0979,-0.41632 -0.0615,-0.14596 -0.14051,-0.26588 -0.2449,-0.39182 -0.10442,-0.12592 -0.23839,-0.23858 -0.36733,-0.31836 -0.12898,-0.0798 -0.25689,-0.12244 -0.39183,-0.12245 h -11.4854 c 0.0558,0.11243 0.0734,0.23348 0.0734,0.36734 0,0.23205 -0.0773,0.42525 -0.24489,0.58774 -0.16763,0.16251 -0.37982,0.2449 -0.61223,0.24489 -0.23204,10e-6 -0.42011,-0.0824 -0.58774,-0.24489 -0.16762,-0.16249 -0.24489,-0.35569 -0.24489,-0.58774 0,-0.13386 0.0176,-0.25491 0.0734,-0.36734 h -0.97957 z m 8.47324,3.01217 c -0.31941,0 -0.61152,0.0631 -0.88161,0.19591 -0.27011,0.13282 -0.48908,0.31322 -0.68569,0.53876 -0.19664,0.22555 -0.35472,0.48523 -0.4653,0.78365 -0.11059,0.29843 -0.17143,0.61192 -0.17142,0.93059 -1e-5,0.7163 0.21909,1.283 0.63672,1.71424 0.4176,0.43124 0.95274,0.63671 1.61628,0.63671 0.30701,0 0.58682,-0.0455 0.85712,-0.17142 0.27027,-0.12592 0.51374,-0.29521 0.71018,-0.51427 0.19642,-0.21906 0.35469,-0.4917 0.4653,-0.78365 0.11057,-0.29195 0.1714,-0.61008 0.17142,-0.95508 -2e-5,-0.31826 -0.0731,-0.61414 -0.19591,-0.9061 -0.12279,-0.29194 -0.28718,-0.54029 -0.48979,-0.75916 -0.20263,-0.21885 -0.43991,-0.41262 -0.71018,-0.53876 -0.2703,-0.12612 -0.5621,-0.17142 -0.85712,-0.17142 z m -9.50178,0.8816 v 5.87739 c 0,0.15954 0.0488,0.31953 0.12245,0.4653 0.0737,0.14577 0.1709,0.27885 0.29387,0.39182 0.12295,0.11297 0.25068,0.1965 0.39182,0.26938 0.14114,0.0729 0.2931,0.098 0.44081,0.098 h 13.68942 c 0.13531,0 0.27515,-0.0251 0.41631,-0.098 0.14113,-0.0729 0.25055,-0.15641 0.36734,-0.26938 0.11675,-0.11297 0.22019,-0.24605 0.29387,-0.39182 0.0737,-0.14577 0.12243,-0.30576 0.12244,-0.4653 v -5.87739 h -3.40399 c -1e-5,0.27859 0.0426,0.53808 0.12245,0.78366 0.0798,0.24558 0.12243,0.50507 0.12245,0.78365 -2e-5,0.51749 -0.0851,0.9871 -0.26938,1.44486 -0.18427,0.45776 -0.44597,0.86165 -0.75917,1.19996 -0.31322,0.33831 -0.68422,0.61581 -1.10201,0.80814 -0.41781,0.19234 -0.86781,0.29387 -1.3469,0.29387 -0.4791,0 -0.91712,-0.11934 -1.3469,-0.31835 -0.42981,-0.19902 -0.81311,-0.46984 -1.1265,-0.80815 -0.31341,-0.33831 -0.55043,-0.71771 -0.73468,-1.17547 -0.18426,-0.45776 -0.26938,-0.95186 -0.26938,-1.46935 0,-0.27858 0.0303,-0.54474 0.098,-0.78365 0.0676,-0.2389 0.0979,-0.48058 0.098,-0.75917 h -2.88972 v 6.29371 c 0,0.37661 -0.18664,0.56325 -0.56325,0.56325 -0.37625,0 -0.56325,-0.18664 -0.56325,-0.56325 v -6.29371 h -2.20402 z"
           style="font-style:normal;font-weight:normal;font-size:24.43698692px;line-height:125%;font-family:Sans;letter-spacing:0px;word-spacing:0px;fill:#ffffff;fill-opacity:1;stroke:none"
           inkscape:connector-curvature="0" />
        <g
           style="font-style:normal;font-weight:normal;font-size:6.37662649px;line-height:125%;font-family:Sans;letter-spacing:0px;word-spacing:0px;fill:#ffffff;fill-opacity:1;stroke:none"
           id="g3328">
          <path
             d="m 86.590492,719.65619 c -8e-6,-0.97937 -1.645148,-1.79038 -4.935425,-2.43303 -2.295493,-0.44368 -3.963752,-0.66553 -5.00478,-0.66553 -0.397915,0 -0.596873,0.19896 -0.596874,0.59687 10e-7,0.41287 0.198959,0.6193 0.596874,0.61929 0.903252,1e-5 2.418556,0.20667 4.545916,0.62 2.310431,0.4591 3.672313,0.8799 4.085649,1.2624 -0.198966,0.18355 -0.780428,0.35962 -1.744388,0.52822 -0.734656,0.10696 -1.4616,0.20644 -2.180834,0.29844 l -1.607078,0.2522 c -2e-6,-0.13777 -2e-6,-0.22184 0,-0.2522 -2e-6,-0.41333 -0.206666,-0.61999 -0.619993,-0.61999 -0.397918,0 -0.596876,0.20666 -0.596875,0.61999 -10e-7,0.79583 0.34444,3.05303 1.033322,6.77158 0.79583,4.34672 1.515068,6.8414 2.157716,7.48406 0.29096,0.29048 0.574219,0.29048 0.849776,0 0.290492,-0.27557 0.290492,-0.55883 0,-0.84978 -0.382976,-0.38251 -0.880371,-2.06595 -1.492187,-5.05032 -0.474513,-2.37209 -0.864957,-4.67528 -1.171331,-6.90959 l 1.583959,-0.22908 c 1.882625,-0.27555 3.045782,-0.48222 3.489475,-0.62 1.071377,-0.30637 1.60707,-0.78088 1.607078,-1.42353 z"
             style="font-variant:normal;font-stretch:normal;font-size:22.95585632px;line-height:125%;font-family:'Luna Bar';-inkscape-font-specification:'Luna Bar';text-align:start;writing-mode:lr-tb;text-anchor:start;fill:#ffffff"
             id="path3330"
             inkscape:connector-curvature="0" />
          <path
             d="m 89.375907,721.10284 c 0.137774,0.59688 0.206662,1.05598 0.206665,1.3773 -3e-6,0.62723 -0.221846,0.94085 -0.66553,0.94085 -0.505336,0 -0.758004,-0.4514 -0.758002,-1.35418 -2e-6,-0.41333 0.046,-0.76524 0.138009,-1.05574 -0.275553,-0.94902 -0.551105,-1.5919 -0.826657,-1.92863 -0.09154,-0.10695 -0.13731,-0.22932 -0.137309,-0.3671 -10e-7,-0.33673 0.168366,-0.50509 0.505101,-0.5051 0.321321,10e-6 0.696119,0.52799 1.124395,1.58396 0.979843,-1.17833 2.540916,-1.99705 4.683224,-2.45615 0.168127,-0.0308 0.313492,-3.5e-4 0.436097,0.0914 0.12259,0.0918 0.183889,0.22197 0.183896,0.39056 -7e-6,0.26015 -0.130077,0.42851 -0.39021,0.5051 -1.132573,0.30592 -1.989587,0.61183 -2.571045,0.91773 -0.949025,0.48993 -1.591902,1.10992 -1.928634,1.85998 z"
             style="font-variant:normal;font-stretch:normal;font-size:22.95585632px;line-height:125%;font-family:'Luna Bar';-inkscape-font-specification:'Luna Bar';text-align:start;writing-mode:lr-tb;text-anchor:start;fill:#ffffff"
             id="path3332"
             inkscape:connector-curvature="0" />
          <path
             d="m 95.310326,719.86286 c 0,-0.81124 0.428507,-1.65682 1.285523,-2.53672 0.857012,-0.87989 1.691141,-1.31984 2.50239,-1.31985 0.658052,10e-6 1.507361,0.41334 2.547931,1.23998 1.10173,0.87197 1.6526,1.64468 1.65261,2.31815 -10e-6,0.82666 -0.43996,1.6379 -1.31985,2.43373 -0.87991,0.79584 -1.74066,1.19375 -2.582254,1.19375 -0.826661,0 -1.699087,-0.34444 -2.617281,-1.03332 -0.97938,-0.71923 -1.469069,-1.48448 -1.469069,-2.29572 z m 3.856567,-2.57105 c -0.642647,10e-6 -1.277819,0.35192 -1.905515,1.05574 -0.55064,0.61229 -0.833664,1.11739 -0.849075,1.51531 -2e-6,0.4591 0.37503,0.94879 1.125095,1.46906 0.703823,0.48993 1.323582,0.73489 1.859278,0.73489 0.5511,0 1.147974,-0.28314 1.790624,-0.84943 0.64264,-0.56628 0.96396,-1.10956 0.96397,-1.62984 -1e-5,-0.44368 -0.38263,-0.93723 -1.14787,-1.48063 -0.76524,-0.54339 -1.377413,-0.81509 -1.836507,-0.8151 z"
             style="font-variant:normal;font-stretch:normal;font-size:22.95585632px;line-height:125%;font-family:'Luna Bar';-inkscape-font-specification:'Luna Bar';text-align:start;writing-mode:lr-tb;text-anchor:start;fill:#ffffff"
             id="path3334"
             inkscape:connector-curvature="0" />
          <path
             d="m 111.59268,721.37816 -0.22909,-1.10198 c -0.78042,0.0458 -1.82869,0.23703 -3.1448,0.57376 -1.66826,0.42874 -2.45662,0.84955 -2.36508,1.2624 0.0766,0.3218 0.41333,0.48269 1.0102,0.48269 0.68888,0 1.67597,-0.20666 2.96126,-0.61999 1.22457,-0.38251 1.81373,-0.58146 1.76751,-0.59688 z m 2.61728,0.45887 c -0.3671,0 -0.55065,-0.19125 -0.55064,-0.57376 -10e-6,-0.13777 0.0381,-0.26014 0.11419,-0.36709 0.0154,-0.30638 -0.42828,-0.49016 -1.33106,-0.55134 0.21436,1.07139 0.41332,1.93611 0.59688,2.59416 0.16812,0.10695 0.31349,0.30965 0.43609,0.60809 0.12259,0.29843 0.18389,0.58543 0.1839,0.86098 -10e-6,0.48992 -0.1915,0.73488 -0.57446,0.73488 -0.52029,0 -0.98686,-0.94878 -1.39971,-2.84636 -0.39792,0.2905 -1.1174,0.54293 -2.15842,0.7573 -0.93361,0.19896 -1.71403,0.29844 -2.34126,0.29844 -1.5459,0 -2.31884,-0.44392 -2.31884,-1.33176 0,-0.79583 0.84954,-1.48448 2.54862,-2.06594 1.19375,-0.41333 2.40268,-0.68117 3.62679,-0.80354 -0.38251,-2.09653 -0.51619,-1.98767 -1.44979,-8.49165 -0.1532,-1.16337 -0.0671,-0.44356 -0.26603,-1.14741 -0.0149,-0.0612 -0.0224,-0.13005 -0.0224,-0.20666 0,-0.41331 0.18354,-0.61997 0.55064,-0.61999 0.13777,2e-5 0.26784,0.0537 0.39021,0.16112 0.18354,0.15275 0.30385,0.58068 0.88532,4.59065 0.65805,4.43781 0.66936,3.40304 1.0827,5.71394 1.80603,0.12237 2.70904,0.70406 2.70905,1.74509 -1e-5,0.22932 -0.0612,0.44345 -0.18354,0.64241 -0.12238,0.19896 -0.29845,0.29844 -0.52822,0.29844 z"
             style="font-variant:normal;font-stretch:normal;font-size:22.95585632px;line-height:125%;font-family:'Luna Bar';-inkscape-font-specification:'Luna Bar';text-align:start;writing-mode:lr-tb;text-anchor:start;fill:#ffffff"
             id="path3336"
             inkscape:connector-curvature="0"
             sodipodi:nodetypes="ccccsccsccccccsccssccccsccccccss" />
          <path
             d="m 123.54488,721.81391 c -0.70383,1.40812 -2.00453,2.11218 -3.9021,2.11218 -1.46931,0 -2.62102,-0.40551 -3.45515,-1.21652 -0.83413,-0.81101 -1.25119,-1.95117 -1.25119,-3.42047 0,-0.56605 0.0766,-1.14751 0.22978,-1.74439 0.21437,-0.85701 0.52051,-1.28551 0.91843,-1.28552 0.3825,10e-6 0.57375,0.22185 0.57375,0.66553 0,0.27556 -0.0689,0.67347 -0.20666,1.19375 -0.13778,0.52028 -0.20667,0.9182 -0.20666,1.19375 -1e-5,2.20349 1.13256,3.30523 3.3977,3.30523 1.1475,0 1.96622,-0.29844 2.45615,-0.89532 0.22931,-0.29049 0.45115,-0.85654 0.66553,-1.69815 0.15318,-0.59687 0.40585,-0.8953 0.758,-0.89531 0.35167,10e-6 0.57352,0.22185 0.66553,0.66553 0.21436,1.04057 0.66576,1.8364 1.35418,2.3875 0.35214,0.27555 0.9413,0.58146 1.76751,0.91773 0.58144,0.2452 0.87218,0.50557 0.87219,0.78112 -1e-5,0.2139 -0.0803,0.38589 -0.24099,0.51596 -0.16068,0.13007 -0.34796,0.17222 -0.56185,0.12645 -1.63791,-0.3825 -2.91596,-1.28552 -3.83415,-2.70905 z"
             style="font-variant:normal;font-stretch:normal;font-size:22.95585632px;line-height:125%;font-family:'Luna Bar';-inkscape-font-specification:'Luna Bar';text-align:start;writing-mode:lr-tb;text-anchor:start;fill:#ffffff"
             id="path3338"
             inkscape:connector-curvature="0" />
          <path
             d="m 140.37787,723.62765 c -0.45911,0.10695 -1.68345,0.16043 -3.67302,0.16043 -5.15751,0 -7.82803,-0.54317 -8.01157,-1.6295 -0.0304,-0.13777 -0.0455,-0.28325 -0.0455,-0.43645 0,-0.79583 0.40539,-1.53024 1.21617,-2.20325 0.61228,-0.50533 1.50759,-1.01043 2.68593,-1.5153 0.90278,-0.35214 1.81327,-0.70406 2.73148,-1.05574 0.45955,-0.19895 0.82688,-0.29843 1.10197,-0.29844 0.33673,10e-6 0.5051,0.14526 0.5051,0.43575 0,0.26014 -0.61976,0.67347 -1.85927,1.23998 -1.97418,0.88738 -3.11422,1.41537 -3.42012,1.58396 -1.19376,0.65806 -1.75233,1.24723 -1.67574,1.76751 0.10695,0.61229 1.44595,0.91843 4.017,0.91843 0.32131,0 0.71923,0 1.19375,0 0.45909,-0.0154 0.74211,-0.0231 0.84907,-0.0231 0.48992,0 1.22457,-0.0116 2.20395,-0.0347 0.97937,-0.0231 1.71402,-0.0347 2.20396,-0.0347 0.36708,0 0.55062,0.18378 0.55064,0.55133 -2e-5,0.2905 -0.19127,0.48175 -0.57376,0.57376 z"
             style="font-variant:normal;font-stretch:normal;font-size:22.95585632px;line-height:125%;font-family:'Luna Bar';-inkscape-font-specification:'Luna Bar';text-align:start;writing-mode:lr-tb;text-anchor:start;fill:#ffffff"
             id="path3340"
             inkscape:connector-curvature="0" />
          <path
             d="m 149.77514,717.93492 h -1.44665 c -1.22411,0.0149 -2.07342,0.0224 -2.54792,0.0224 -0.10696,-1.31611 -0.29051,-3.32086 -0.55064,-6.01428 -0.33674,-3.58124 -0.50511,-5.80784 -0.5051,-6.67982 -1e-5,-0.3213 0.0152,-0.53567 0.0455,-0.64311 0.12283,-0.36707 0.0159,-0.62721 -0.32085,-0.78042 -0.33674,-0.13775 -0.5817,-0.0534 -0.73489,0.2529 -0.10695,0.22934 -0.16043,0.65014 -0.16042,1.26241 -1e-5,0.9028 0.16836,3.13711 0.5051,6.70293 0.26013,2.63223 0.43597,4.5987 0.52752,5.89939 -1.56085,-0.0149 -2.84637,-0.0378 -3.85657,-0.0687 -1.89757,-0.0766 -2.99184,-0.19896 -3.28281,-0.3671 -0.0458,-0.0308 -0.19872,-0.0462 -0.45887,-0.0462 -0.13777,0 -0.26025,0.0459 -0.36744,0.13766 -0.10718,0.0918 -0.13765,0.21426 -0.0914,0.36744 0.10696,0.33674 0.35939,0.58941 0.7573,0.758 0.0154,0.0149 0.5357,0.0684 1.56084,0.16043 1.77522,0.15319 3.71879,0.22979 5.83074,0.22978 0.13777,2.26467 0.13777,3.8561 0,4.7743 -0.0458,0.38297 0.12259,0.60505 0.5051,0.66623 0.39791,0.0458 0.61999,-0.1226 0.66623,-0.5051 0.13731,-0.97938 0.13731,-2.62452 0,-4.93543 0.19895,10e-6 1.02514,10e-6 2.47857,0 l 1.44665,-0.0231 c 0.39791,10e-6 0.58916,-0.19124 0.57376,-0.57375 -1e-5,-0.39791 -0.19126,-0.59687 -0.57376,-0.59688 z"
             style="font-variant:normal;font-stretch:normal;font-size:22.95585632px;line-height:125%;font-family:'Luna Bar';-inkscape-font-specification:'Luna Bar';text-align:start;writing-mode:lr-tb;text-anchor:start;fill:#ffffff"
             id="path3342"
             inkscape:connector-curvature="0" />
        </g>
        <text
           xml:space="preserve"
           style="font-style:normal;font-weight:normal;line-height:0%;font-family:sans-serif;letter-spacing:0px;word-spacing:0px;fill:#ffffff;fill-opacity:1;stroke:none"
           x="167.42603"
           y="724.13275"
           id="text3344"><tspan
             sodipodi:role="line"
             x="167.42603"
             y="724.13275"
             style="font-style:normal;font-variant:normal;font-weight:normal;font-stretch:normal;font-size:22.95585632px;line-height:125%;font-family:'Luna Bar';-inkscape-font-specification:'Luna Bar';text-align:start;writing-mode:lr-tb;text-anchor:start;fill:#ffffff;fill-opacity:1"
             id="tspan3346">ns</tspan></text>
      </g>
      <text
         xml:space="preserve"
         style="font-style:normal;font-weight:normal;line-height:0%;font-family:sans-serif;letter-spacing:0px;word-spacing:0px;fill:#ffffff;fill-opacity:1;stroke:none"
         x="123.09069"
         y="598.99542"
         id="text3348"
         transform="scale(0.87960781,1.1368703)"><tspan
           sodipodi:role="line"
           id="tspan3350"
           x="123.09069"
           y="598.99542"
           style="font-style:normal;font-variant:normal;font-weight:normal;font-stretch:normal;font-size:28.00918007px;line-height:125%;font-family:'D3 Euronism Bold';-inkscape-font-specification:'D3 Euronism Bold,';text-align:start;writing-mode:lr-tb;text-anchor:start;fill:#ffffff;fill-opacity:1">JonSiu</tspan></text>
    </g>
    <g
       inkscape:export-ydpi="2824.1282"
       inkscape:export-xdpi="2824.1282"
       style="fill:#f9f9f9;stroke-width:0.22132348"
       id="g3129-1-1"
       transform="matrix(2.0659145,0,0,2.0659145,-222.73967,-685.79716)"
       inkscape:export-filename="D:\My Files\JonSiu Productions\bitmap.png">
      <g
         transform="matrix(3.4745942,0,0,3.3137812,-416.90738,-1703.8317)"
         style="fill:#f9f9f9;stroke-width:0.22132348"
         id="g3131-7-7">
        <path
           inkscape:connector-curvature="0"
           style="font-style:normal;font-weight:normal;font-size:24.43698692px;line-height:125%;font-family:Sans;letter-spacing:0px;word-spacing:0px;fill:#ff0000;fill-opacity:1;stroke:none;stroke-width:0.22132348"
           d="m 157.16412,713.6687 -0.049,0.049 c -0.0245,0.0332 -0.0487,0.0583 -0.0734,0.098 -0.0615,0.0665 -0.12844,0.1453 -0.19591,0.24489 -0.0675,0.0996 -0.13444,0.21228 -0.19591,0.31836 -0.0615,0.1061 -0.0978,0.19651 -0.14694,0.26938 l -0.0734,0.098 v 0.14693 h 5.28966 c -2e-5,-0.04 -0.0121,-0.0734 -0.0245,-0.0734 -0.0371,-0.0664 -0.10396,-0.16124 -0.17143,-0.29387 -0.0675,-0.1326 -0.12845,-0.26588 -0.19591,-0.39182 -0.0675,-0.12592 -0.13444,-0.21874 -0.19591,-0.31836 -0.0615,-0.0996 -0.0977,-0.14692 -0.12245,-0.14694 h -3.84479 z m 1.27343,0.29387 h 1.27344 v 0.61223 h -1.27344 z m 5.26517,0.22041 c -0.0368,10e-6 -0.0857,0.0137 -0.12245,0.0734 -0.0367,0.0597 -0.0487,0.14085 -0.0734,0.22041 -0.0248,0.0796 -0.0613,0.14732 -0.0734,0.2204 -0.0122,0.0731 -1e-5,0.1095 0,0.12244 h 2.0326 c -1e-5,-0.0793 -0.0182,-0.18814 -0.0734,-0.36733 -0.0553,-0.17917 -0.12245,-0.26937 -0.19591,-0.26938 h -1.49384 z m -10.45686,0.26938 c -0.0615,0 -0.10408,0.0542 -0.12245,0.14693 -0.0183,0.0927 -0.0245,0.154 -0.0245,0.2204 h 0.14694 c 0.15835,-0.14024 0.32651,-0.22039 0.53876,-0.2204 0.21258,10e-6 0.40487,0.0802 0.56325,0.2204 h 0.14693 c 0,-0.0396 -0.0123,-0.0898 -0.0245,-0.19591 -0.0121,-0.10607 -0.0242,-0.17142 -0.049,-0.17142 h -1.17548 z m -1.19997,0.63671 c -0.12296,10e-6 -0.24457,0.054 -0.36733,0.14694 -0.12278,0.0929 -0.22015,0.19224 -0.31836,0.31836 -0.0982,0.12614 -0.18342,0.27035 -0.24489,0.41631 -0.0615,0.14599 -0.098,0.26126 -0.098,0.36734 v 2.20402 h 2.20402 c 0,-0.37111 0.187,-0.56324 0.56325,-0.56325 0.37661,10e-6 0.56325,0.19214 0.56325,0.56325 h 3.1591 l 0.049,-0.0734 c 0.39286,-0.54421 0.825,-0.95051 1.29792,-1.24894 0.4729,-0.29842 1.03857,-0.46529 1.68975,-0.4653 0.58967,10e-6 1.15534,0.16688 1.68975,0.4653 0.53437,0.29843 0.95402,0.73853 1.27343,1.32241 h 3.64888 v -2.20402 c -1e-5,-0.13281 -0.0365,-0.27033 -0.0979,-0.41632 -0.0615,-0.14596 -0.14051,-0.26588 -0.2449,-0.39182 -0.10442,-0.12592 -0.23839,-0.23858 -0.36733,-0.31836 -0.12898,-0.0798 -0.25689,-0.12244 -0.39183,-0.12245 h -11.4854 c 0.0558,0.11243 0.0734,0.23348 0.0734,0.36734 0,0.23205 -0.0773,0.42525 -0.24489,0.58774 -0.16763,0.16251 -0.37982,0.2449 -0.61223,0.24489 -0.23204,10e-6 -0.42011,-0.0824 -0.58774,-0.24489 -0.16762,-0.16249 -0.24489,-0.35569 -0.24489,-0.58774 0,-0.13386 0.0176,-0.25491 0.0734,-0.36734 h -0.97957 z m 8.47324,3.01217 c -0.31941,0 -0.61152,0.0631 -0.88161,0.19591 -0.27011,0.13282 -0.48908,0.31322 -0.68569,0.53876 -0.19664,0.22555 -0.35472,0.48523 -0.4653,0.78365 -0.11059,0.29843 -0.17143,0.61192 -0.17142,0.93059 -1e-5,0.7163 0.21909,1.283 0.63672,1.71424 0.4176,0.43124 0.95274,0.63671 1.61628,0.63671 0.30701,0 0.58682,-0.0455 0.85712,-0.17142 0.27027,-0.12592 0.51374,-0.29521 0.71018,-0.51427 0.19642,-0.21906 0.35469,-0.4917 0.4653,-0.78365 0.11057,-0.29195 0.1714,-0.61008 0.17142,-0.95508 -2e-5,-0.31826 -0.0731,-0.61414 -0.19591,-0.9061 -0.12279,-0.29194 -0.28718,-0.54029 -0.48979,-0.75916 -0.20263,-0.21885 -0.43991,-0.41262 -0.71018,-0.53876 -0.2703,-0.12612 -0.5621,-0.17142 -0.85712,-0.17142 z m -9.50178,0.8816 v 5.87739 c 0,0.15954 0.0488,0.31953 0.12245,0.4653 0.0737,0.14577 0.1709,0.27885 0.29387,0.39182 0.12295,0.11297 0.25068,0.1965 0.39182,0.26938 0.14114,0.0729 0.2931,0.098 0.44081,0.098 h 13.68942 c 0.13531,0 0.27515,-0.0251 0.41631,-0.098 0.14113,-0.0729 0.25055,-0.15641 0.36734,-0.26938 0.11675,-0.11297 0.22019,-0.24605 0.29387,-0.39182 0.0737,-0.14577 0.12243,-0.30576 0.12244,-0.4653 v -5.87739 h -3.40399 c -1e-5,0.27859 0.0426,0.53808 0.12245,0.78366 0.0798,0.24558 0.12243,0.50507 0.12245,0.78365 -2e-5,0.51749 -0.0851,0.9871 -0.26938,1.44486 -0.18427,0.45776 -0.44597,0.86165 -0.75917,1.19996 -0.31322,0.33831 -0.68422,0.61581 -1.10201,0.80814 -0.41781,0.19234 -0.86781,0.29387 -1.3469,0.29387 -0.4791,0 -0.91712,-0.11934 -1.3469,-0.31835 -0.42981,-0.19902 -0.81311,-0.46984 -1.1265,-0.80815 -0.31341,-0.33831 -0.55043,-0.71771 -0.73468,-1.17547 -0.18426,-0.45776 -0.26938,-0.95186 -0.26938,-1.46935 0,-0.27858 0.0303,-0.54474 0.098,-0.78365 0.0676,-0.2389 0.0979,-0.48058 0.098,-0.75917 h -2.88972 v 6.29371 c 0,0.37661 -0.18664,0.56325 -0.56325,0.56325 -0.37625,0 -0.56325,-0.18664 -0.56325,-0.56325 v -6.29371 h -2.20402 z"
           id="path3133-4-4" />
      </g>
    </g>
  </g>
</svg>
